<svg xmlns="http://www.w3.org/2000/svg" xmlns:xlink="http://www.w3.org/1999/xlink" data-name="Layer 1" viewBox="0 0 512 512"><defs><linearGradient id="a" x1="377.114" x2="377.114" y1="16" y2="494.94" gradientUnits="userSpaceOnUse"><stop offset="0" stop-color="#00efd1"/><stop offset="1" stop-color="#00acea"/></linearGradient><linearGradient id="b" x1="256.114" x2="256.114" y1="16" y2="494.94" xlink:href="#a"/></defs><path fill="url(#a)" d="M377.114,100.751a90.835,90.835,0,0,0-90.733,90.732,8,8,0,0,0,15.734,2.048c.848-3.183,2.6-7.485,3.935-9.056a13.333,13.333,0,0,1,9.014-3.606,12.854,12.854,0,0,1,8.968,3.549,13.366,13.366,0,0,1,3.716,9.134,8,8,0,0,0,16,0,12.422,12.422,0,0,1,12.683-12.683,12.72,12.72,0,0,1,8.911,3.549A13.352,13.352,0,0,1,369,193.552v62.083a3.448,3.448,0,1,1-6.9,0,7.99,7.99,0,1,0-15.979,0,19.438,19.438,0,1,0,38.875,0V193.552a12.517,12.517,0,0,1,12.768-12.683,12.888,12.888,0,0,1,8.982,3.549,13.368,13.368,0,0,1,3.723,9.134,8,8,0,0,0,16,0,12.425,12.425,0,0,1,12.684-12.683,12.859,12.859,0,0,1,8.952,3.533c1.34,1.507,3.136,5.894,4,9.117a8,8,0,0,0,15.737-2.036A90.835,90.835,0,0,0,377.114,100.751Zm62.049,64.118a29.432,29.432,0,0,0-20.191,8.149q-.177.166-.342.342l-.15.161-.149-.16c-.056-.059-.112-.117-.17-.174a28.941,28.941,0,0,0-20.364-8.318,29.43,29.43,0,0,0-20.191,8.149q-.177.166-.342.342l-.15.161c-.05-.054-.1-.107-.15-.16s-.111-.117-.169-.174a28.942,28.942,0,0,0-20.364-8.318,29.43,29.43,0,0,0-20.191,8.149q-.177.166-.343.343c-.05.053-.1.106-.149.16l-.15-.16c-.056-.059-.112-.117-.169-.174a28.981,28.981,0,0,0-28.6-7.11,74.739,74.739,0,0,1,140.562-.026A29.285,29.285,0,0,0,439.163,164.869Z"/><path fill="url(#b)" d="M510.228,187.938c0-73.4-59.715-133.113-133.114-133.113S244,114.3,244,187.7a125.215,125.215,0,0,0,1.026,16.3H195.105a53.508,53.508,0,0,0-42.148,21.118l-45.017,59.23L32.621,305.017A41.8,41.8,0,0,0,2,345.335v28.5C2,396.848,20.494,416,43.507,416h7.975c5.441,23,26.765,41.606,52.185,41.606S150.41,439,155.851,416h171.13c5.441,23,26.765,41.606,52.185,41.606S425.909,439,431.35,416h13.6C467.961,416,487,396.847,487,373.834V341.3a41.972,41.972,0,0,0-24.623-37.994l-10.936-4.935A133.017,133.017,0,0,0,510.228,187.938ZM103.667,441.175a37.542,37.542,0,1,1,37.541-37.542A37.584,37.584,0,0,1,103.667,441.175Zm275.5,0a37.542,37.542,0,1,1,37.542-37.542A37.584,37.584,0,0,1,379.166,441.175Zm76.59-123.3A25.939,25.939,0,0,1,471,341.3v32.535A26.409,26.409,0,0,1,444.948,400h-12.41a53.526,53.526,0,0,0-106.745,0H157.039a53.526,53.526,0,0,0-106.745,0H43.507C29.317,400,18,388.025,18,373.835v-28.5a25.69,25.69,0,0,1,18.838-24.824l77.99-21.324a7.939,7.939,0,0,0,4.228-2.871l46.644-61.5A37.391,37.391,0,0,1,195.105,220h52.924c14.554,58,66.906,100.815,129.085,100.815a132.583,132.583,0,0,0,57.2-12.774Zm-78.642-12.819A117.114,117.114,0,1,1,494.228,187.938,117.246,117.246,0,0,1,377.114,305.052Z"/></svg>