<svg xmlns="http://www.w3.org/2000/svg" xmlns:xlink="http://www.w3.org/1999/xlink" data-name="Layer 1" viewBox="0 0 512 512"><defs><linearGradient id="a" x1="147.16" x2="147.16" y1="6.71" y2="499.673" gradientUnits="userSpaceOnUse"><stop offset="0" stop-color="#00efd1"/><stop offset="1" stop-color="#00acea"/></linearGradient><linearGradient id="b" x1="234.488" x2="234.488" y1="6.71" y2="499.673" xlink:href="#a"/><linearGradient id="c" x1="256" x2="256" y1="6.71" y2="499.673" xlink:href="#a"/><linearGradient id="d" x1="376.5" x2="376.5" y1="6.71" y2="499.673" xlink:href="#a"/><linearGradient id="e" x1="376.954" x2="376.954" y1="6.71" y2="499.673" xlink:href="#a"/></defs><g data-name="&lt;Group&gt;"><path fill="url(#a)" d="M164.626,163.035a8,8,0,0,0-8,8,9.466,9.466,0,0,1-18.932,0,8,8,0,0,0-16,0,25.466,25.466,0,0,0,50.932,0A8,8,0,0,0,164.626,163.035Z" data-name="&lt;Path&gt;"/><path fill="url(#b)" d="M234.488,196.5a25.494,25.494,0,0,0,25.466-25.465,8,8,0,0,0-16,0,9.466,9.466,0,0,1-18.932,0,8,8,0,0,0-16,0A25.494,25.494,0,0,0,234.488,196.5Z" data-name="&lt;Path&gt;"/><path fill="url(#c)" d="M478.4,348H367.085a77.3,77.3,0,0,0-68.971-42H256V281.574c4-3.5,8.924-7.383,13.087-11.659a112.676,112.676,0,0,0,31.256-64.685A29.388,29.388,0,0,0,322.372,176.7c0-13.391-9.372-24.715-21.372-28.274V96h17.308a8.036,8.036,0,0,0,8-8.042A78.041,78.041,0,0,0,248.392,10H176.42a42.707,42.707,0,0,0-25,8.058A110.912,110.912,0,0,0,100.383,57.6,109.761,109.761,0,0,0,80,121.108v27.134A29.968,29.968,0,0,0,58.346,176.7c0,13.414,9.971,25.076,22.911,28.456a112.829,112.829,0,0,0,31.373,64.757A122.3,122.3,0,0,0,130,284.508V306H87.9A78.1,78.1,0,0,0,10,384.035v61.794A8.147,8.147,0,0,0,18,454H252v24.394A23.555,23.555,0,0,0,275.515,502H478.4A23.632,23.632,0,0,0,502,478.394V371.407A23.464,23.464,0,0,0,478.4,348ZM306.249,176.7A13.984,13.984,0,0,1,301,187.335V166.068A13.984,13.984,0,0,1,306.249,176.7ZM248.392,26c31.429,0,57.464,24,61.4,54H176.42a27,27,0,0,1,0-54ZM133.817,45.853a43.15,43.15,0,0,0-.477,7.1,42.859,42.859,0,0,0,26.345,39.685C135.667,118.307,109,121.815,96,121.858v-.75C96,91.217,110.653,63.431,133.817,45.853ZM74.1,176.7c0-4.617,2.9-8.7,5.9-11.118V187.36C77,184.857,74.1,180.939,74.1,176.7Zm49.846,82.052A96.968,96.968,0,0,1,96,190.971V137.832C113,137.758,148.946,133,178.278,96H285v94.971a96.65,96.65,0,0,1-27.625,67.782c-17.93,18.414-41.675,28.555-66.713,28.555S141.879,277.167,123.949,258.753Zm67,44.555A107.812,107.812,0,0,0,240,291.571v18.12l-48.216,29.887L146,309.8V293.56A108.24,108.24,0,0,0,190.953,303.308ZM26,384.035A62.086,62.086,0,0,1,87.9,322h47.794L184,353.4V438H26ZM200,438V353.509L249.953,322h48.161a62.012,62.012,0,0,1,50.191,26h-72.79A23.386,23.386,0,0,0,252,371.407V438Zm286,40.394A7.605,7.605,0,0,1,478.4,486H275.605A7.605,7.605,0,0,1,268,478.394V371.606A7.605,7.605,0,0,1,275.605,364H478.4A7.605,7.605,0,0,1,486,371.606Z" data-name="&lt;Compound Path&gt;"/><path fill="url(#d)" d="M468.34,395.467c-12.187-.2-19.9-5.9-20.309-14.74A7.985,7.985,0,0,0,440.146,373H313.765a8.081,8.081,0,0,0-7.992,7.718c-.407,8.71-8.664,14.51-20.658,14.7A8.253,8.253,0,0,0,277,403.466v42.869a8.212,8.212,0,0,0,8.115,8c12,.194,19.837,6,20.252,14.849A8.279,8.279,0,0,0,313.48,477H440.146a8.167,8.167,0,0,0,7.991-7.817c.407-8.711,8.209-14.56,20.2-14.753a7.905,7.905,0,0,0,7.66-8.1V403.466A7.822,7.822,0,0,0,468.34,395.467ZM460,439.091C447,441.511,437.028,450,433.5,461H320.12C316.952,451,308,441.587,293,439.048V410.711C307,408.291,316.882,400,320.406,389h113.1C436.7,399,445,408.239,460,410.764Z" data-name="&lt;Compound Path&gt;"/><path fill="url(#e)" d="M376.954,391.794A33.107,33.107,0,1,0,410.061,424.9,33.144,33.144,0,0,0,376.954,391.794Zm0,50.213A17.107,17.107,0,1,1,394.061,424.9,17.125,17.125,0,0,1,376.954,442.007Z" data-name="&lt;Compound Path&gt;"/></g></svg>