<svg xmlns="http://www.w3.org/2000/svg" xmlns:xlink="http://www.w3.org/1999/xlink" data-name="Layer 1" viewBox="0 0 512 512"><defs><linearGradient id="a" x1="256.145" x2="256.145" y1="12" y2="494.597" gradientUnits="userSpaceOnUse"><stop offset="0" stop-color="#00efd1"/><stop offset="1" stop-color="#00acea"/></linearGradient><linearGradient id="b" x1="357.5" x2="357.5" y1="12" y2="494.597" xlink:href="#a"/><linearGradient id="c" x1="83.55" x2="83.55" y1="12" y2="494.597" xlink:href="#a"/><linearGradient id="d" x1="181" x2="181" y1="12" y2="494.597" xlink:href="#a"/><linearGradient id="e" x1="229" x2="229" y1="12" y2="494.597" xlink:href="#a"/><linearGradient id="f" x1="278" x2="278" y1="12" y2="494.597" xlink:href="#a"/></defs><g data-name="&lt;Group&gt;"><path fill="url(#a)" d="M441,270.681V235.6A27.466,27.466,0,0,0,413.265,208H387V182.171C387,166.731,374.79,154,359.351,154H331V99.6A27.685,27.685,0,0,0,303.008,72H239V18a8,8,0,0,0-16,0V72H153.578A27.334,27.334,0,0,0,126,99.6V234H51.578A27.528,27.528,0,0,0,24,261.828V446.314A7.387,7.387,0,0,0,31.578,454H256.656A130.6,130.6,0,1,0,441,270.681ZM126,438H40V261.828A11.513,11.513,0,0,1,51.578,250H126ZM331,170h28.351A11.866,11.866,0,0,1,371,182.171V215.6a8.657,8.657,0,0,0,8.351,8.4h33.914A11.453,11.453,0,0,1,425,235.6v23.644c-19-11.988-42.792-18.9-67.542-18.9A132.688,132.688,0,0,0,331,243.065ZM142,438V99.6A11.322,11.322,0,0,1,153.578,88h149.43A11.67,11.67,0,0,1,315,99.6V247.469a137.231,137.231,0,0,0-29,14.37V243.771a8,8,0,1,0-16,0v30.46c-18,15.79-30.667,36.2-37.617,59.283a8.894,8.894,0,0,0-3.21-.6,8.15,8.15,0,0,0-8.173,8V372a7.932,7.932,0,0,0,5.919,7.526A128.073,128.073,0,0,0,245.353,438Zm215.6,48A114.827,114.827,0,1,1,472.422,371.173,114.957,114.957,0,0,1,357.6,486Z" data-name="&lt;Compound Path&gt;"/><path fill="url(#b)" d="M421.823,318H393v-.36c0-13.472-10.5-24.64-23.4-24.64H343.354C330.456,293,320,304.168,320,317.64V318H293.366C280.468,318,270,328.811,270,342.282V367.5c0,4.418,3.557,8.5,7.975,8.5H279v41.644c0,13.471,10.606,24.356,23.5,24.356H412.682C425.58,442,436,431.115,436,417.644V376h1.215c4.418,0,7.785-4.08,7.785-8.5v-25.22C445,328.811,434.722,318,421.823,318ZM336,317.64c0-4.65,3.278-8.64,7.354-8.64H369.6c4.076,0,7.4,3.99,7.4,8.64V318H336Zm84,100c0,4.649-3.242,8.356-7.318,8.356H302.505c-4.076,0-7.5-3.707-7.5-8.356V376h36v5.5c0,4.418,3.188,8.5,7.605,8.5h35.541c4.417,0,7.854-4.077,7.854-8.5V376h38ZM347,374V361h19v13Zm82-14H382v-6.5c0-4.418-3.437-8.5-7.854-8.5H338.605c-4.417,0-7.605,4.08-7.605,8.5V360H286V342.282c0-4.649,3.29-8.282,7.366-8.282H421.823c4.076,0,7.177,3.633,7.177,8.282Z" data-name="&lt;Compound Path&gt;"/><path fill="url(#c)" d="M69.95 297h27.2a8 8 0 0 0 0-16H69.95a8 8 0 1 0 0 16zM69.95 346h27.2a8 8 0 0 0 0-16H69.95a8 8 0 1 0 0 16zM69.95 394h27.2a8 8 0 0 0 0-16H69.95a8 8 0 1 0 0 16z" data-name="&lt;Path&gt;"/><path fill="url(#d)" d="M181,138.628a8,8,0,0,0-8,8v31.086a8,8,0,0,0,16,0V146.628A8,8,0,0,0,181,138.628Z" data-name="&lt;Path&gt;"/><path fill="url(#e)" d="M229,185.714a8,8,0,0,0,8-8V146.628a8,8,0,0,0-16,0v31.086A8,8,0,0,0,229,185.714Z" data-name="&lt;Path&gt;"/><path fill="url(#f)" d="M278,185.714a8,8,0,0,0,8-8V146.628a8,8,0,0,0-16,0v31.086A8,8,0,0,0,278,185.714Z" data-name="&lt;Path&gt;"/><path fill="url(#d)" d="M181,235.771a8,8,0,0,0-8,8v31.086a8,8,0,0,0,16,0V243.771A8,8,0,0,0,181,235.771Z" data-name="&lt;Path&gt;"/><path fill="url(#e)" d="M229,282.857a8,8,0,0,0,8-8V243.771a8,8,0,1,0-16,0v31.086A8,8,0,0,0,229,282.857Z" data-name="&lt;Path&gt;"/><path fill="url(#d)" d="M181,332.914a8,8,0,0,0-8,8V372a8,8,0,0,0,16,0V340.914A8,8,0,0,0,181,332.914Z" data-name="&lt;Path&gt;"/></g></svg>