<svg xmlns="http://www.w3.org/2000/svg" xmlns:xlink="http://www.w3.org/1999/xlink" data-name="Layer 1" viewBox="0 0 512 512"><defs><linearGradient id="a" x1="254.73" x2="254.73" y1="46" y2="454.078" gradientUnits="userSpaceOnUse"><stop offset="0" stop-color="#00efd1"/><stop offset="1" stop-color="#00acea"/></linearGradient><linearGradient id="b" x1="256.001" x2="256.001" y1="46" y2="454.078" xlink:href="#a"/></defs><path fill="url(#a)" d="M274.9,78a6,6,0,0,0,0-12H234.558a6,6,0,0,0,0,12H246.1a11.469,11.469,0,0,1,9.57,5H234.558a6,6,0,0,0,0,12h21.114a10.355,10.355,0,0,1-9.57,6H234.558a5.881,5.881,0,0,0-4.121,10.195l28.854,27.239a6.008,6.008,0,0,0,8.242-8.745L249.4,112.314A23.516,23.516,0,0,0,268.615,95H274.9a6,6,0,0,0,0-12h-6.277c-.5-1-1.227-3-2.15-5Z"/><path fill="url(#b)" d="M385.215,388.415a25.687,25.687,0,0,0-35.295-3.377l-32.865,24.575a31.9,31.9,0,0,0-29.391-10.289L260,404.186V384h6.134A57.684,57.684,0,0,0,324,326.322v-12.4A5.826,5.826,0,0,0,318.124,308h-12.4C287,308,270,316.839,260,330.644V281h6.134A57.766,57.766,0,0,0,324,223.226v-12.4A5.746,5.746,0,0,0,318.124,205h-12.4C287,205,270,213.743,260,227.547V199.179c50-2.611,91.07-44.706,91.07-96.076A96.189,96.189,0,1,0,248,199.051v28.42c-2-2.086-3.487-4.087-5.391-5.973a56.9,56.9,0,0,0-40.269-16.589c-.177,0-.423.091-.6.091h-12.4c-3.314,0-6.336,2.509-6.336,5.822v12.4C183,255.2,209.351,281,241.326,281H248v49.568c-2-2.087-3.487-4.088-5.391-5.974a56.943,56.943,0,0,0-40.269-16.637c-.177,0-.423.043-.6.043h-12.4A6.227,6.227,0,0,0,183,313.918v12.4C183,358.3,209.351,384,241.326,384H248v21.886a35.48,35.48,0,0,1-10.945-1.336l-3.941-1.1a64.3,64.3,0,0,0-56.8,10.734l-1.085-6.109a6,6,0,0,0-6.953-4.876l-37.987,6.644a6,6,0,0,0-4.878,6.944l14.579,83.351a5.992,5.992,0,0,0,6.944,4.877l37.983-6.644a6,6,0,0,0,4.876-6.944l-.6-3.462,8.256-6.7a16.069,16.069,0,0,1,11.473-3.672l61.941,4.528c.133.01.267.015.4.016a66.067,66.067,0,0,0,39.2-12.7,5.885,5.885,0,0,0,.649-.551l73.779-72.239A6,6,0,0,0,385.215,388.415ZM305.72,320H312v6.322A45.67,45.67,0,0,1,266.134,372H260v-6.091A45.742,45.742,0,0,1,305.72,320Zm0-103H312v6.226A45.752,45.752,0,0,1,266.134,269H260v-6.188A45.66,45.66,0,0,1,305.72,217ZM260,175.977a72.744,72.744,0,0,0,41.538-16.8l7.877,7.878A83.814,83.814,0,0,1,260,187.126Zm-5.271-11.789A61.085,61.085,0,1,1,315.814,103.1,61.154,61.154,0,0,1,254.729,164.188Zm47.156-116.86A72.749,72.749,0,0,0,260,30.228V19.079a83.815,83.815,0,0,1,49.762,20.372ZM248,30.34a72.754,72.754,0,0,0-40.916,17.413l-7.878-7.877A83.839,83.839,0,0,1,248,19.191ZM198.655,56.294A72.732,72.732,0,0,0,181.843,98h-11.15a83.814,83.814,0,0,1,20.084-49.584ZM181.979,110a72.763,72.763,0,0,0,16.976,40.258l-7.877,7.877A83.828,83.828,0,0,1,170.83,110Zm25.453,48.753A72.753,72.753,0,0,0,248,175.865v11.15a83.826,83.826,0,0,1-48.446-20.385Zm110.525-.128-7.877-7.878A72.757,72.757,0,0,0,327.479,110h11.15A83.849,83.849,0,0,1,317.957,158.625ZM338.766,98h-11.15A72.745,72.745,0,0,0,310.38,55.8l7.878-7.877A83.836,83.836,0,0,1,338.766,98ZM195,223.226V217H201.8A46,46,0,0,1,248,262.812V269h-6.674C215.967,269,195,248.585,195,223.226Zm0,103.1V320H201.8A46.08,46.08,0,0,1,248,365.909V372h-6.674C215.967,372,195,351.681,195,326.322ZM150.771,492.159,138.26,420.627l26.162-4.576,12.513,71.531Zm152.25-32.231A53.9,53.9,0,0,1,271.645,470h-.123l-61.734-4.447a27.967,27.967,0,0,0-19.96,6.4l-3.013,2.463-8.13-46.474a52.29,52.29,0,0,1,51.077-12.952l3.874,1.1a48.1,48.1,0,0,0,21.322,1.112l34.639-6.058a20.185,20.185,0,0,1,21.381,10.619l-50.129,8.769a6,6,0,1,0,2.068,11.821l56.937-9.96a6,6,0,0,0,4.876-6.944,32.206,32.206,0,0,0-1.476-5.488L357.165,394.6c.042-.031.084-.063.125-.1a13.711,13.711,0,0,1,14.315-1.7Z"/></svg>